<svg id="Layer_1" data-name="Layer 1" xmlns="http://www.w3.org/2000/svg" viewBox="0 0 341.22 241.78"><defs><style>.cls-1{fill:#97e5fb;}</style></defs><circle class="cls-1" cx="10" cy="8.57" r="8.57"/><circle class="cls-1" cx="55.14" cy="8.57" r="8.57"/><circle class="cls-1" cx="101.11" cy="8.57" r="8.57"/><circle class="cls-1" cx="147.92" cy="8.57" r="8.57"/><circle class="cls-1" cx="193.89" cy="8.57" r="8.57"/><circle class="cls-1" cx="241.54" cy="8.57" r="8.57"/><circle class="cls-1" cx="286.68" cy="8.57" r="8.57"/><circle class="cls-1" cx="332.65" cy="8.57" r="8.57"/><circle class="cls-1" cx="8.57" cy="53.5" r="8.57"/><circle class="cls-1" cx="53.71" cy="53.5" r="8.57"/><circle class="cls-1" cx="99.68" cy="53.5" r="8.57"/><circle class="cls-1" cx="146.49" cy="53.5" r="8.57"/><circle class="cls-1" cx="192.46" cy="53.5" r="8.57"/><circle class="cls-1" cx="240.11" cy="53.5" r="8.57"/><circle class="cls-1" cx="285.25" cy="53.5" r="8.57"/><circle class="cls-1" cx="331.22" cy="53.5" r="8.57"/><circle class="cls-1" cx="8.57" cy="98.43" r="8.57"/><circle class="cls-1" cx="53.71" cy="98.43" r="8.57"/><circle class="cls-1" cx="99.68" cy="98.43" r="8.57"/><circle class="cls-1" cx="146.49" cy="98.43" r="8.57"/><circle class="cls-1" cx="192.46" cy="98.43" r="8.57"/><circle class="cls-1" cx="240.11" cy="98.43" r="8.57"/><circle class="cls-1" cx="285.25" cy="98.43" r="8.57"/><circle class="cls-1" cx="331.22" cy="98.43" r="8.57"/><circle class="cls-1" cx="8.57" cy="143.35" r="8.57"/><circle class="cls-1" cx="53.71" cy="143.35" r="8.57"/><circle class="cls-1" cx="99.68" cy="143.35" r="8.57"/><circle class="cls-1" cx="146.49" cy="143.35" r="8.57"/><circle class="cls-1" cx="192.46" cy="143.35" r="8.57"/><circle class="cls-1" cx="240.11" cy="143.35" r="8.57"/><circle class="cls-1" cx="285.25" cy="143.35" r="8.57"/><circle class="cls-1" cx="331.22" cy="143.35" r="8.57"/><circle class="cls-1" cx="8.57" cy="188.28" r="8.57"/><circle class="cls-1" cx="53.71" cy="188.28" r="8.57"/><circle class="cls-1" cx="99.68" cy="188.28" r="8.57"/><circle class="cls-1" cx="146.49" cy="188.28" r="8.57"/><circle class="cls-1" cx="192.46" cy="188.28" r="8.57"/><circle class="cls-1" cx="240.11" cy="188.28" r="8.57"/><circle class="cls-1" cx="285.25" cy="188.28" r="8.57"/><circle class="cls-1" cx="331.22" cy="188.28" r="8.57"/><circle class="cls-1" cx="8.57" cy="233.21" r="8.57"/><circle class="cls-1" cx="53.71" cy="233.21" r="8.57"/><circle class="cls-1" cx="99.68" cy="233.21" r="8.57"/><circle class="cls-1" cx="146.49" cy="233.21" r="8.57"/><circle class="cls-1" cx="192.46" cy="233.21" r="8.57"/><circle class="cls-1" cx="240.11" cy="233.21" r="8.57"/><circle class="cls-1" cx="285.25" cy="233.21" r="8.57"/><circle class="cls-1" cx="331.22" cy="233.21" r="8.57"/></svg>